<svg width="48" height="48" viewBox="0 0 48 48" fill="none" xmlns="http://www.w3.org/2000/svg">
<path fill-rule="evenodd" clip-rule="evenodd" d="M7.61348 12.4128C9.41375 10.6131 11.8551 9.60207 14.4007 9.60207C16.9463 9.60207 19.3876 10.6131 21.1879 12.4128L24.0007 15.2232L26.8135 12.4128C27.6991 11.4959 28.7584 10.7646 29.9296 10.2614C31.1008 9.75832 32.3606 9.49349 33.6352 9.48242C34.9099 9.47134 36.174 9.71424 37.3539 10.1969C38.5337 10.6796 39.6055 11.3925 40.5069 12.2938C41.4083 13.1952 42.1211 14.2671 42.6038 15.4469C43.0865 16.6267 43.3294 17.8908 43.3183 19.1655C43.3072 20.4402 43.0424 21.6999 42.5393 22.8711C42.0361 24.0424 41.3048 25.1017 40.3879 25.9872L24.0007 42.3768L7.61348 25.9872C5.81376 24.187 4.80273 21.7456 4.80273 19.2C4.80273 16.6544 5.81376 14.2131 7.61348 12.4128V12.4128Z" stroke="#FFFDEC" stroke-width="2" stroke-linejoin="round"/>
</svg>
