<svg width="48" height="48" viewBox="0 0 48 48" fill="none" xmlns="http://www.w3.org/2000/svg">
<path fill-rule="evenodd" clip-rule="evenodd" d="M27.3533 8.63254C26.4983 5.12249 21.5032 5.12249 20.6481 8.63254C20.5205 9.15999 20.2701 9.64984 19.9174 10.0622C19.5646 10.4746 19.1195 10.7979 18.6182 11.0058C18.1169 11.2137 17.5737 11.3003 17.0326 11.2585C16.4915 11.2168 15.9679 11.0479 15.5045 10.7656C12.4174 8.88455 8.88476 12.4171 10.7658 15.5042C11.9809 17.4977 10.9031 20.0987 8.635 20.65C5.12264 21.5027 5.12264 26.5001 8.635 27.3506C9.1626 27.4784 9.65254 27.729 10.0649 28.082C10.4774 28.435 10.8006 28.8804 11.0082 29.382C11.2159 29.8835 11.3022 30.427 11.2601 30.9682C11.218 31.5094 11.0486 32.0331 10.7658 32.4964C8.88476 35.5835 12.4174 39.116 15.5045 37.235C15.9679 36.9522 16.4915 36.7829 17.0327 36.7407C17.5739 36.6986 18.1174 36.7849 18.619 36.9926C19.1205 37.2003 19.5659 37.5235 19.919 37.9359C20.272 38.3483 20.5226 38.8382 20.6504 39.3658C21.5032 42.8781 26.5006 42.8781 27.3511 39.3658C27.4793 38.8385 27.7302 38.3489 28.0833 37.9368C28.4364 37.5246 28.8817 37.2016 29.3831 36.994C29.8845 36.7864 30.4278 36.7 30.9689 36.7419C31.51 36.7838 32.0335 36.9527 32.497 37.235C35.5841 39.116 39.1167 35.5835 37.2357 32.4964C36.9534 32.0329 36.7844 31.5094 36.7426 30.9683C36.7007 30.4273 36.7871 29.884 36.9947 29.3826C37.2023 28.8812 37.5253 28.4358 37.9374 28.0828C38.3495 27.7297 38.8392 27.4788 39.3665 27.3506C42.8788 26.4978 42.8788 21.5005 39.3665 20.65C38.8389 20.5222 38.3489 20.2716 37.9365 19.9186C37.5241 19.5656 37.2009 19.1202 36.9932 18.6186C36.7856 18.1171 36.6993 17.5736 36.7414 17.0323C36.7835 16.4911 36.9529 15.9675 37.2357 15.5042C39.1167 12.4171 35.5841 8.88455 32.497 10.7656C32.0336 11.0484 31.51 11.2177 30.9688 11.2598C30.4276 11.302 29.8841 11.2157 29.3825 11.008C28.881 10.8003 28.4355 10.4771 28.0825 10.0647C27.7295 9.65232 27.4789 9.16238 27.3511 8.63479L27.3533 8.63254Z" stroke="#FFFDEC" stroke-width="2"/>
<path d="M28.0007 24C28.0007 26.2091 26.2099 28 24.0007 28C21.7916 28 20.0007 26.2091 20.0007 24C20.0007 21.7909 21.7916 20 24.0007 20C26.2099 20 28.0007 21.7909 28.0007 24Z" stroke="#FFFDEC" stroke-width="2"/>
</svg>
